# Generated with VoxelOptimizer
# These comments can be removed
mtllib AK47.mtl
v -2 -6 -27
v -2 -6 -21
v -2 -4 -21
v -2 -4 -27
v -2 -4 -29
v -2 4 -27
v -2 4 -29
v -2 -4 -23
v -2 -2 -23
v -2 -2 -27
v -2 -2 -21
v -2 -4 -17
v -2 -2 -17
v -2 -4 -15
v -2 -4 -13
v -2 4 -13
v -2 4 -15
v -2 -2 -25
v -2 0 -25
v -2 0 -27
v -2 0 -21
v -2 -2 -19
v -2 0 -19
v -2 0 -17
v -2 -2 -15
v -2 0 -15
v -2 -2 -13
v -2 -2 -1
v -2 0 -1
v -2 0 -13
v -2 -2 9
v -2 0 9
v -2 2 -25
v -2 2 -27
v -2 2 -19
v -2 2 -17
v -2 2 -15
v -2 0 -11
v -2 2 -11
v -2 2 -13
v -2 0 -5
v -2 2 -5
v -2 0 -3
v -2 2 -3
v -2 4 -1
v -2 4 -3
v -2 0 1
v -2 2 1
v -2 2 -1
v -2 0 3
v -2 2 3
v -2 0 5
v -2 2 5
v -2 0 7
v -2 2 7
v -2 2 9
v -2 0 21
v -2 2 21
v -2 4 -11
v -2 4 1
v -2 4 3
v -2 4 7
v -2 4 9
v -1 -12 -1
v -1 -12 3
v -1 -10 3
v -1 -10 -1
v -1 -10 -15
v -1 -10 -13
v -1 -8 -13
v -1 -8 -15
v -1 -10 -11
v -1 -8 -11
v -1 -10 -3
v -1 -8 -1
v -1 -8 -3
v -1 -10 1
v -1 -8 1
v -1 -8 3
v -1 -8 -17
v -1 -6 -15
v -1 -6 -17
v -1 -6 -13
v -1 -6 -11
v -1 -8 -9
v -1 -4 -9
v -1 -4 -11
v -1 -8 -5
v -1 -2 -3
v -1 -2 -5
v -1 -6 1
v -1 -6 -3
v -1 -6 3
v -1 -4 -15
v -1 -4 -17
v -1 -4 -13
v -1 -6 -9
v -1 -6 -5
v -1 -4 -5
v -1 -6 -1
v -1 -4 -1
v -1 -4 -3
v -1 -4 1
v -1 -2 -11
v -1 -2 -13
v -1 -2 -9
v -1 -4 -7
v -1 -2 -7
v -1 -2 -1
v -1 -2 1
v -1 0 21
v -1 0 29
v -1 2 29
v -1 2 21
v -1 2 9
v -1 2 11
v -1 6 11
v -1 6 9
v -1 2 13
v -1 4 13
v -1 4 11
v -1 2 17
v -1 2 19
v -1 4 19
v -1 4 17
v -1 4 21
v -1 2 27
v -1 4 29
v -1 4 27
v -1 4 -13
v -1 4 -11
v -1 6 -11
v -1 6 -13
v -1 4 -3
v -1 6 -3
v -1 4 -1
v -1 6 -1
v -1 4 1
v -1 6 1
v -1 4 3
v -1 6 3
v -1 4 5
v -1 6 5
v -1 4 9
v -1 6 19
v 1 -12 -1
v 1 -12 3
v 1 -10 3
v 1 -10 -1
v 1 -10 -15
v 1 -10 -13
v 1 -8 -13
v 1 -8 -15
v 1 -10 -11
v 1 -8 -11
v 1 -10 -3
v 1 -8 -1
v 1 -8 -3
v 1 -10 1
v 1 -8 1
v 1 -8 3
v 1 -8 -17
v 1 -6 -15
v 1 -6 -17
v 1 -6 -13
v 1 -6 -11
v 1 -8 -9
v 1 -4 -9
v 1 -4 -11
v 1 -8 -5
v 1 -2 -3
v 1 -2 -5
v 1 -6 1
v 1 -6 -3
v 1 -6 3
v 1 -4 -15
v 1 -4 -17
v 1 -4 -13
v 1 -6 -9
v 1 -6 -5
v 1 -4 -5
v 1 -6 -1
v 1 -4 -1
v 1 -4 -3
v 1 -4 1
v 1 -2 -11
v 1 -2 -13
v 1 -2 -9
v 1 -4 -7
v 1 -2 -7
v 1 -2 -1
v 1 -2 1
v 1 0 21
v 1 0 29
v 1 2 29
v 1 2 21
v 1 2 9
v 1 2 11
v 1 6 11
v 1 6 9
v 1 2 13
v 1 4 13
v 1 4 11
v 1 2 17
v 1 2 19
v 1 4 19
v 1 4 17
v 1 4 21
v 1 2 27
v 1 4 29
v 1 4 27
v 1 4 -13
v 1 4 -11
v 1 6 -11
v 1 6 -13
v 1 4 -3
v 1 6 -3
v 1 4 -1
v 1 6 -1
v 1 4 1
v 1 6 1
v 1 4 3
v 1 6 3
v 1 4 5
v 1 6 5
v 1 4 9
v 1 6 19
v 2 -6 -27
v 2 -6 -21
v 2 -4 -21
v 2 -4 -27
v 2 -4 -29
v 2 4 -27
v 2 4 -29
v 2 -4 -23
v 2 -2 -23
v 2 -2 -27
v 2 -2 -21
v 2 -4 -17
v 2 -2 -17
v 2 -4 -15
v 2 -4 -13
v 2 4 -13
v 2 4 -15
v 2 -2 -25
v 2 0 -25
v 2 0 -27
v 2 0 -21
v 2 -2 -19
v 2 0 -19
v 2 0 -17
v 2 -2 -15
v 2 0 -15
v 2 -2 -13
v 2 -2 -1
v 2 0 -1
v 2 0 -13
v 2 -2 9
v 2 0 9
v 2 2 -25
v 2 2 -27
v 2 2 -19
v 2 2 -17
v 2 2 -15
v 2 0 -11
v 2 2 -11
v 2 2 -13
v 2 0 -5
v 2 2 -5
v 2 0 -3
v 2 2 -3
v 2 4 -1
v 2 4 -3
v 2 0 1
v 2 2 1
v 2 2 -1
v 2 0 3
v 2 2 3
v 2 0 5
v 2 2 5
v 2 0 7
v 2 2 7
v 2 2 9
v 2 0 21
v 2 2 21
v 2 4 -11
v 2 4 1
v 2 4 3
v 2 4 7
v 2 4 9
v -1 -2 9
v 1 -2 9
v -1 4 7
v 1 4 7
vn -1 0 0
vn 1 0 0
vn 0 0 -1
vn 0 0 1
vn 0 -1 0
vn 0 1 0
vt 0.15 0.5
vt 0.05 0.5
vt 0.45 0.5
vt 0.55 0.5
vt 0.75 0.5
vt 0.65 0.5
vt 0.35 0.5
vt 0.25 0.5
vt 0.85 0.5
vt 0.95 0.5
usemtl Mat0
f 1/1/1 2/1/1 3/1/1
f 1/1/1 3/1/1 4/1/1
f 5/2/1 4/2/1 6/2/1
f 5/2/1 6/2/1 7/2/1
f 4/3/1 8/3/1 9/3/1
f 4/3/1 9/3/1 10/3/1
f 8/4/1 3/4/1 11/4/1
f 8/4/1 11/4/1 9/4/1
f 3/1/1 12/1/1 13/1/1
f 3/1/1 13/1/1 11/1/1
f 14/2/1 15/2/1 16/2/1
f 14/2/1 16/2/1 17/2/1
f 10/3/1 18/3/1 19/3/1
f 10/3/1 19/3/1 20/3/1
f 18/5/1 11/5/1 21/5/1
f 18/5/1 21/5/1 19/5/1
f 11/3/1 22/3/1 23/3/1
f 11/3/1 23/3/1 21/3/1
f 22/4/1 13/4/1 24/4/1
f 22/4/1 24/4/1 23/4/1
f 13/1/1 25/1/1 26/1/1
f 13/1/1 26/1/1 24/1/1
f 27/2/1 28/2/1 29/2/1
f 27/2/1 29/2/1 30/2/1
f 28/1/1 31/1/1 32/1/1
f 28/1/1 32/1/1 29/1/1
f 20/5/1 19/5/1 33/5/1
f 20/5/1 33/5/1 34/5/1
f 19/6/1 23/6/1 35/6/1
f 19/6/1 35/6/1 33/6/1
f 23/5/1 24/5/1 36/5/1
f 23/5/1 36/5/1 35/5/1
f 24/4/1 26/4/1 37/4/1
f 24/4/1 37/4/1 36/4/1
f 30/7/1 38/7/1 39/7/1
f 30/7/1 39/7/1 40/7/1
f 38/8/1 41/8/1 42/8/1
f 38/8/1 42/8/1 39/8/1
f 41/7/1 43/7/1 44/7/1
f 41/7/1 44/7/1 42/7/1
f 43/2/1 29/2/1 45/2/1
f 43/2/1 45/2/1 46/2/1
f 29/4/1 47/4/1 48/4/1
f 29/4/1 48/4/1 49/4/1
f 47/3/1 50/3/1 51/3/1
f 47/3/1 51/3/1 48/3/1
f 50/5/1 52/5/1 53/5/1
f 50/5/1 53/5/1 51/5/1
f 52/3/1 54/3/1 55/3/1
f 52/3/1 55/3/1 53/3/1
f 54/4/1 32/4/1 56/4/1
f 54/4/1 56/4/1 55/4/1
f 32/2/1 57/2/1 58/2/1
f 32/2/1 58/2/1 56/2/1
f 34/1/1 37/1/1 17/1/1
f 34/1/1 17/1/1 6/1/1
f 40/8/1 39/8/1 59/8/1
f 40/8/1 59/8/1 16/8/1
f 39/2/1 44/2/1 46/2/1
f 39/2/1 46/2/1 59/2/1
f 49/8/1 48/8/1 60/8/1
f 49/8/1 60/8/1 45/8/1
f 48/2/1 51/2/1 61/2/1
f 48/2/1 61/2/1 60/2/1
f 51/6/1 55/6/1 62/6/1
f 51/6/1 62/6/1 61/6/1
f 55/3/1 56/3/1 63/3/1
f 55/3/1 63/3/1 62/3/1
f 64/2/1 65/2/1 66/2/1
f 64/2/1 66/2/1 67/2/1
f 68/2/1 69/2/1 70/2/1
f 68/2/1 70/2/1 71/2/1
f 69/1/1 72/1/1 73/1/1
f 69/1/1 73/1/1 70/1/1
f 74/2/1 67/2/1 75/2/1
f 74/2/1 75/2/1 76/2/1
f 67/8/1 77/8/1 78/8/1
f 67/8/1 78/8/1 75/8/1
f 77/7/1 66/7/1 79/7/1
f 77/7/1 79/7/1 78/7/1
f 80/2/1 71/2/1 81/2/1
f 80/2/1 81/2/1 82/2/1
f 71/3/1 70/3/1 83/3/1
f 71/3/1 83/3/1 81/3/1
f 70/4/1 73/4/1 84/4/1
f 70/4/1 84/4/1 83/4/1
f 73/1/1 85/1/1 86/1/1
f 73/1/1 86/1/1 87/1/1
f 88/2/1 76/2/1 89/2/1
f 88/2/1 89/2/1 90/2/1
f 76/7/1 78/7/1 91/7/1
f 76/7/1 91/7/1 92/7/1
f 78/2/1 79/2/1 93/2/1
f 78/2/1 93/2/1 91/2/1
f 82/1/1 81/1/1 94/1/1
f 82/1/1 94/1/1 95/1/1
f 81/6/1 83/6/1 96/6/1
f 81/6/1 96/6/1 94/6/1
f 83/5/1 84/5/1 87/5/1
f 83/5/1 87/5/1 96/5/1
f 97/2/1 98/2/1 99/2/1
f 97/2/1 99/2/1 86/2/1
f 92/8/1 100/8/1 101/8/1
f 92/8/1 101/8/1 102/8/1
f 100/7/1 91/7/1 103/7/1
f 100/7/1 103/7/1 101/7/1
f 96/3/1 87/3/1 104/3/1
f 96/3/1 104/3/1 105/3/1
f 87/4/1 86/4/1 106/4/1
f 87/4/1 106/4/1 104/4/1
f 86/2/1 107/2/1 108/2/1
f 86/2/1 108/2/1 106/2/1
f 102/7/1 101/7/1 109/7/1
f 102/7/1 109/7/1 89/7/1
f 101/2/1 103/2/1 110/2/1
f 101/2/1 110/2/1 109/2/1
f 111/2/1 112/2/1 113/2/1
f 111/2/1 113/2/1 114/2/1
f 115/2/1 116/2/1 117/2/1
f 115/2/1 117/2/1 118/2/1
f 116/8/1 119/8/1 120/8/1
f 116/8/1 120/8/1 121/8/1
f 122/8/1 123/8/1 124/8/1
f 122/8/1 124/8/1 125/8/1
f 123/2/1 114/2/1 126/2/1
f 123/2/1 126/2/1 124/2/1
f 127/2/1 113/2/1 128/2/1
f 127/2/1 128/2/1 129/2/1
f 130/2/1 131/2/1 132/2/1
f 130/2/1 132/2/1 133/2/1
f 131/9/1 134/9/1 135/9/1
f 131/9/1 135/9/1 132/9/1
f 134/10/1 136/10/1 137/10/1
f 134/10/1 137/10/1 135/10/1
f 136/9/1 138/9/1 139/9/1
f 136/9/1 139/9/1 137/9/1
f 138/10/1 140/10/1 141/10/1
f 138/10/1 141/10/1 139/10/1
f 140/8/1 142/8/1 143/8/1
f 140/8/1 143/8/1 141/8/1
f 142/2/1 144/2/1 118/2/1
f 142/2/1 118/2/1 143/2/1
f 121/2/1 124/2/1 145/2/1
f 121/2/1 145/2/1 117/2/1
f 148/2/2 147/2/2 146/2/2
f 149/2/2 148/2/2 146/2/2
f 152/2/2 151/2/2 150/2/2
f 153/2/2 152/2/2 150/2/2
f 155/1/2 154/1/2 151/1/2
f 152/1/2 155/1/2 151/1/2
f 157/2/2 149/2/2 156/2/2
f 158/2/2 157/2/2 156/2/2
f 160/8/2 159/8/2 149/8/2
f 157/8/2 160/8/2 149/8/2
f 161/7/2 148/7/2 159/7/2
f 160/7/2 161/7/2 159/7/2
f 163/2/2 153/2/2 162/2/2
f 164/2/2 163/2/2 162/2/2
f 165/3/2 152/3/2 153/3/2
f 163/3/2 165/3/2 153/3/2
f 166/4/2 155/4/2 152/4/2
f 165/4/2 166/4/2 152/4/2
f 168/1/2 167/1/2 155/1/2
f 169/1/2 168/1/2 155/1/2
f 171/2/2 158/2/2 170/2/2
f 172/2/2 171/2/2 170/2/2
f 173/7/2 160/7/2 158/7/2
f 174/7/2 173/7/2 158/7/2
f 175/2/2 161/2/2 160/2/2
f 173/2/2 175/2/2 160/2/2
f 176/1/2 163/1/2 164/1/2
f 177/1/2 176/1/2 164/1/2
f 178/6/2 165/6/2 163/6/2
f 176/6/2 178/6/2 163/6/2
f 169/5/2 166/5/2 165/5/2
f 178/5/2 169/5/2 165/5/2
f 181/2/2 180/2/2 179/2/2
f 168/2/2 181/2/2 179/2/2
f 183/8/2 182/8/2 174/8/2
f 184/8/2 183/8/2 174/8/2
f 185/7/2 173/7/2 182/7/2
f 183/7/2 185/7/2 182/7/2
f 186/3/2 169/3/2 178/3/2
f 187/3/2 186/3/2 178/3/2
f 188/4/2 168/4/2 169/4/2
f 186/4/2 188/4/2 169/4/2
f 190/2/2 189/2/2 168/2/2
f 188/2/2 190/2/2 168/2/2
f 191/7/2 183/7/2 184/7/2
f 171/7/2 191/7/2 184/7/2
f 192/2/2 185/2/2 183/2/2
f 191/2/2 192/2/2 183/2/2
f 195/2/2 194/2/2 193/2/2
f 196/2/2 195/2/2 193/2/2
f 199/2/2 198/2/2 197/2/2
f 200/2/2 199/2/2 197/2/2
f 202/8/2 201/8/2 198/8/2
f 203/8/2 202/8/2 198/8/2
f 206/8/2 205/8/2 204/8/2
f 207/8/2 206/8/2 204/8/2
f 208/2/2 196/2/2 205/2/2
f 206/2/2 208/2/2 205/2/2
f 210/2/2 195/2/2 209/2/2
f 211/2/2 210/2/2 209/2/2
f 214/2/2 213/2/2 212/2/2
f 215/2/2 214/2/2 212/2/2
f 217/9/2 216/9/2 213/9/2
f 214/9/2 217/9/2 213/9/2
f 219/10/2 218/10/2 216/10/2
f 217/10/2 219/10/2 216/10/2
f 221/9/2 220/9/2 218/9/2
f 219/9/2 221/9/2 218/9/2
f 223/10/2 222/10/2 220/10/2
f 221/10/2 223/10/2 220/10/2
f 225/8/2 224/8/2 222/8/2
f 223/8/2 225/8/2 222/8/2
f 200/2/2 226/2/2 224/2/2
f 225/2/2 200/2/2 224/2/2
f 227/2/2 206/2/2 203/2/2
f 199/2/2 227/2/2 203/2/2
f 230/1/2 229/1/2 228/1/2
f 231/1/2 230/1/2 228/1/2
f 233/2/2 231/2/2 232/2/2
f 234/2/2 233/2/2 232/2/2
f 236/3/2 235/3/2 231/3/2
f 237/3/2 236/3/2 231/3/2
f 238/4/2 230/4/2 235/4/2
f 236/4/2 238/4/2 235/4/2
f 240/1/2 239/1/2 230/1/2
f 238/1/2 240/1/2 230/1/2
f 243/2/2 242/2/2 241/2/2
f 244/2/2 243/2/2 241/2/2
f 246/3/2 245/3/2 237/3/2
f 247/3/2 246/3/2 237/3/2
f 248/5/2 238/5/2 245/5/2
f 246/5/2 248/5/2 245/5/2
f 250/3/2 249/3/2 238/3/2
f 248/3/2 250/3/2 238/3/2
f 251/4/2 240/4/2 249/4/2
f 250/4/2 251/4/2 249/4/2
f 253/1/2 252/1/2 240/1/2
f 251/1/2 253/1/2 240/1/2
f 256/2/2 255/2/2 254/2/2
f 257/2/2 256/2/2 254/2/2
f 259/1/2 258/1/2 255/1/2
f 256/1/2 259/1/2 255/1/2
f 260/5/2 246/5/2 247/5/2
f 261/5/2 260/5/2 247/5/2
f 262/6/2 250/6/2 246/6/2
f 260/6/2 262/6/2 246/6/2
f 263/5/2 251/5/2 250/5/2
f 262/5/2 263/5/2 250/5/2
f 264/4/2 253/4/2 251/4/2
f 263/4/2 264/4/2 251/4/2
f 266/7/2 265/7/2 257/7/2
f 267/7/2 266/7/2 257/7/2
f 269/8/2 268/8/2 265/8/2
f 266/8/2 269/8/2 265/8/2
f 271/7/2 270/7/2 268/7/2
f 269/7/2 271/7/2 268/7/2
f 272/2/2 256/2/2 270/2/2
f 273/2/2 272/2/2 270/2/2
f 275/4/2 274/4/2 256/4/2
f 276/4/2 275/4/2 256/4/2
f 278/3/2 277/3/2 274/3/2
f 275/3/2 278/3/2 274/3/2
f 280/5/2 279/5/2 277/5/2
f 278/5/2 280/5/2 277/5/2
f 282/3/2 281/3/2 279/3/2
f 280/3/2 282/3/2 279/3/2
f 283/4/2 259/4/2 281/4/2
f 282/4/2 283/4/2 281/4/2
f 285/2/2 284/2/2 259/2/2
f 283/2/2 285/2/2 259/2/2
f 244/1/2 264/1/2 261/1/2
f 233/1/2 244/1/2 261/1/2
f 286/8/2 266/8/2 267/8/2
f 243/8/2 286/8/2 267/8/2
f 273/2/2 271/2/2 266/2/2
f 286/2/2 273/2/2 266/2/2
f 287/8/2 275/8/2 276/8/2
f 272/8/2 287/8/2 276/8/2
f 288/2/2 278/2/2 275/2/2
f 287/2/2 288/2/2 275/2/2
f 289/6/2 282/6/2 278/6/2
f 288/6/2 289/6/2 278/6/2
f 290/3/2 283/3/2 282/3/2
f 289/3/2 290/3/2 282/3/2
f 5/2/3 7/2/3 234/2/3
f 5/2/3 234/2/3 232/2/3
f 1/1/3 4/1/3 231/1/3
f 1/1/3 231/1/3 228/1/3
f 230/1/4 3/1/4 2/1/4
f 229/1/4 230/1/4 2/1/4
f 240/1/4 13/1/4 12/1/4
f 239/1/4 240/1/4 12/1/4
f 80/2/3 82/2/3 164/2/3
f 80/2/3 164/2/3 162/2/3
f 82/1/3 95/1/3 177/1/3
f 82/1/3 177/1/3 164/1/3
f 14/2/3 25/2/3 252/2/3
f 14/2/3 252/2/3 241/2/3
f 68/2/3 71/2/3 153/2/3
f 68/2/3 153/2/3 150/2/3
f 105/2/4 27/2/4 15/2/4
f 96/2/4 105/2/4 15/2/4
f 130/2/3 133/2/3 215/2/3
f 130/2/3 215/2/3 212/2/3
f 254/2/4 187/2/4 178/2/4
f 242/2/4 254/2/4 178/2/4
f 155/1/4 73/1/4 72/1/4
f 154/1/4 155/1/4 72/1/4
f 179/1/4 97/1/4 85/1/4
f 167/1/4 179/1/4 85/1/4
f 190/2/4 108/2/4 107/2/4
f 189/2/4 190/2/4 107/2/4
f 88/2/3 98/2/3 180/2/3
f 88/2/3 180/2/3 170/2/3
f 99/2/3 90/2/3 172/2/3
f 99/2/3 172/2/3 181/2/3
f 74/2/3 76/2/3 158/2/3
f 74/2/3 158/2/3 156/2/3
f 64/2/3 67/2/3 149/2/3
f 64/2/3 149/2/3 146/2/3
f 185/7/4 103/7/4 91/7/4
f 173/7/4 185/7/4 91/7/4
f 192/2/4 110/2/4 103/2/4
f 185/2/4 192/2/4 103/2/4
f 148/2/4 66/2/4 65/2/4
f 147/2/4 148/2/4 65/2/4
f 161/7/4 79/7/4 66/7/4
f 148/7/4 161/7/4 66/7/4
f 175/2/4 93/2/4 79/2/4
f 161/2/4 175/2/4 79/2/4
f 259/1/4 32/1/4 31/1/4
f 258/1/4 259/1/4 31/1/4
f 144/3/4 63/3/4 56/3/4
f 115/3/4 144/3/4 56/3/4
f 290/3/4 226/3/4 197/3/4
f 283/3/4 290/3/4 197/3/4
f 202/8/4 120/8/4 119/8/4
f 201/8/4 202/8/4 119/8/4
f 122/8/3 125/8/3 207/8/3
f 122/8/3 207/8/3 204/8/3
f 227/2/4 145/2/4 124/2/4
f 206/2/4 227/2/4 124/2/4
f 114/2/4 58/2/4 57/2/4
f 111/2/4 114/2/4 57/2/4
f 208/2/4 126/2/4 114/2/4
f 196/2/4 208/2/4 114/2/4
f 285/2/4 196/2/4 193/2/4
f 284/2/4 285/2/4 193/2/4
f 127/2/3 129/2/3 211/2/3
f 127/2/3 211/2/3 209/2/3
f 210/2/4 128/2/4 112/2/4
f 194/2/4 210/2/4 112/2/4
f 64/2/5 146/2/5 147/2/5
f 64/2/5 147/2/5 65/2/5
f 68/2/5 150/2/5 151/2/5
f 68/2/5 151/2/5 69/2/5
f 69/1/5 151/1/5 154/1/5
f 69/1/5 154/1/5 72/1/5
f 74/2/5 156/2/5 149/2/5
f 74/2/5 149/2/5 67/2/5
f 80/2/5 162/2/5 153/2/5
f 80/2/5 153/2/5 71/2/5
f 73/1/5 155/1/5 167/1/5
f 73/1/5 167/1/5 85/1/5
f 88/2/5 170/2/5 158/2/5
f 88/2/5 158/2/5 76/2/5
f 1/1/5 228/1/5 229/1/5
f 1/1/5 229/1/5 2/1/5
f 97/2/5 179/2/5 180/2/5
f 97/2/5 180/2/5 98/2/5
f 175/2/6 173/2/6 91/2/6
f 93/2/6 175/2/6 91/2/6
f 5/2/5 232/2/5 231/2/5
f 5/2/5 231/2/5 4/2/5
f 3/1/5 230/1/5 239/1/5
f 3/1/5 239/1/5 12/1/5
f 176/1/6 177/1/6 95/1/6
f 94/1/6 176/1/6 95/1/6
f 14/2/5 94/2/5 96/2/5
f 14/2/5 96/2/5 15/2/5
f 176/2/5 241/2/5 242/2/5
f 176/2/5 242/2/5 178/2/5
f 181/2/6 189/2/6 107/2/6
f 99/2/6 181/2/6 107/2/6
f 13/1/5 240/1/5 252/1/5
f 13/1/5 252/1/5 25/1/5
f 27/2/5 105/2/5 109/2/5
f 27/2/5 109/2/5 28/2/5
f 187/2/5 254/2/5 255/2/5
f 187/2/5 255/2/5 191/2/5
f 108/2/5 190/2/5 172/2/5
f 108/2/5 172/2/5 90/2/5
f 28/1/5 109/1/5 291/1/5
f 28/1/5 291/1/5 31/1/5
f 191/1/5 255/1/5 258/1/5
f 191/1/5 258/1/5 292/1/5
f 110/1/5 192/1/5 292/1/5
f 110/1/5 292/1/5 291/1/5
f 32/2/5 259/2/5 284/2/5
f 32/2/5 284/2/5 57/2/5
f 111/2/5 193/2/5 194/2/5
f 111/2/5 194/2/5 112/2/5
f 114/2/6 115/2/6 56/2/6
f 58/2/6 114/2/6 56/2/6
f 285/2/6 283/2/6 197/2/6
f 196/2/6 285/2/6 197/2/6
f 204/2/6 201/2/6 119/2/6
f 122/2/6 204/2/6 119/2/6
f 209/2/6 196/2/6 114/2/6
f 127/2/6 209/2/6 114/2/6
f 233/2/6 234/2/6 7/2/6
f 6/2/6 233/2/6 7/2/6
f 244/1/6 233/1/6 6/1/6
f 17/1/6 244/1/6 6/1/6
f 243/2/6 244/2/6 17/2/6
f 16/2/6 243/2/6 17/2/6
f 131/8/6 130/8/6 16/8/6
f 59/8/6 131/8/6 16/8/6
f 286/8/6 243/8/6 212/8/6
f 213/8/6 286/8/6 212/8/6
f 136/2/6 131/2/6 59/2/6
f 45/2/6 136/2/6 59/2/6
f 272/2/6 286/2/6 213/2/6
f 218/2/6 272/2/6 213/2/6
f 138/8/6 136/8/6 45/8/6
f 60/8/6 138/8/6 45/8/6
f 287/8/6 272/8/6 218/8/6
f 220/8/6 287/8/6 218/8/6
f 140/2/6 138/2/6 60/2/6
f 61/2/6 140/2/6 60/2/6
f 288/2/6 287/2/6 220/2/6
f 222/2/6 288/2/6 220/2/6
f 293/6/6 140/6/6 61/6/6
f 62/6/6 293/6/6 61/6/6
f 289/6/6 288/6/6 222/6/6
f 294/6/6 289/6/6 222/6/6
f 144/3/6 293/3/6 62/3/6
f 63/3/6 144/3/6 62/3/6
f 290/3/6 289/3/6 294/3/6
f 226/3/6 290/3/6 294/3/6
f 120/2/5 202/2/5 207/2/5
f 120/2/5 207/2/5 125/2/5
f 208/2/6 206/2/6 124/2/6
f 126/2/6 208/2/6 124/2/6
f 210/2/6 211/2/6 129/2/6
f 128/2/6 210/2/6 129/2/6
f 214/2/6 215/2/6 133/2/6
f 132/2/6 214/2/6 133/2/6
f 217/9/6 214/9/6 132/9/6
f 135/9/6 217/9/6 132/9/6
f 219/10/6 217/10/6 135/10/6
f 137/10/6 219/10/6 135/10/6
f 221/9/6 219/9/6 137/9/6
f 139/9/6 221/9/6 137/9/6
f 223/10/6 221/10/6 139/10/6
f 141/10/6 223/10/6 139/10/6
f 225/8/6 223/8/6 141/8/6
f 143/8/6 225/8/6 141/8/6
f 227/2/6 225/2/6 143/2/6
f 145/2/6 227/2/6 143/2/6
