# Blender v2.83.2 OBJ File: ''
# www.blender.org
mtllib SoccerBall.mtl
o soccer-ball
v -0.037434 -0.121289 0.027400
v 0.053545 -0.092119 0.073192
v 0.065647 -0.038917 0.105345
v -0.077524 -0.041109 0.095782
v -0.057475 -0.089510 0.074144
v -0.001958 -0.088004 -0.095680
v 0.090146 -0.088044 -0.031828
v 0.066752 -0.041256 -0.103828
v 0.120637 -0.038467 -0.030291
v 0.040085 0.012669 0.122841
v -0.118814 0.041414 -0.031850
v 0.040299 0.012511 -0.122970
v -0.006489 0.041428 -0.122969
v 0.002446 0.088216 -0.095468
v 0.114979 0.041362 -0.044599
v 0.091584 0.088150 -0.027603
v 0.114979 0.041362 0.044396
v -0.014286 0.121387 -0.044498
v -0.046616 0.121387 0.000000
v -0.017363 0.120144 0.046962
v 0.038025 0.121387 0.027501
v 0.010744 -0.122740 0.041395
v -0.007058 -0.087135 0.096186
v 0.089265 -0.087307 0.036334
v 0.118182 -0.040519 0.036334
v 0.048810 -0.120274 0.000796
v 0.012194 -0.121519 -0.044781
v -0.095083 -0.084070 0.027400
v -0.095083 -0.084070 -0.027603
v -0.040265 -0.117940 -0.033781
v -0.055376 -0.084085 -0.082090
v 0.062292 -0.087281 -0.073574
v 0.103890 -0.012336 0.077144
v 0.128887 0.016789 0.002901
v 0.004431 -0.045453 0.121832
v -0.042356 -0.016536 0.121833
v -0.113573 -0.042818 0.045165
v -0.129063 -0.008767 0.002641
v -0.105909 0.016866 0.073160
v -0.105675 0.016840 -0.073597
v -0.042810 -0.011902 -0.122136
v -0.082778 -0.036861 -0.092777
v -0.114345 -0.045545 -0.041597
v 0.105393 -0.012156 -0.075156
v 0.005922 -0.042697 -0.122768
v 0.073938 0.040823 0.098745
v -0.071213 0.040677 0.100661
v -0.001464 0.040823 0.123245
v -0.117814 0.040677 0.036520
v -0.087635 0.090537 0.029459
v -0.070979 0.040651 -0.101098
v -0.057324 0.089377 -0.074025
v 0.074152 0.040665 -0.098874
v 0.050757 0.087453 -0.081877
v 0.050600 0.090530 0.078797
v 0.003339 0.084455 0.098746
v 0.095166 0.084231 0.027400
v 0.032917 0.122838 -0.027501
v -0.060699 0.084308 0.078016
v -0.092795 0.084282 -0.033955
vt 0.222531 0.054427
vt 0.224531 0.049987
vt 0.231175 0.054467
vt 0.230545 0.062660
vt 0.205645 0.028679
vt 0.199501 0.015822
vt 0.219842 0.017910
vt 0.215408 0.030549
vt 0.216932 0.038095
vt 0.225996 0.032463
vt 0.224620 0.039856
vt 0.151971 0.079281
vt 0.136955 0.067633
vt 0.149451 0.054341
vt 0.164105 0.068777
vt 0.065184 0.678913
vt 0.061522 0.685822
vt 0.052082 0.684336
vt 0.052082 0.675966
vt 0.060191 0.671813
vt 0.036962 0.682588
vt 0.028977 0.685450
vt 0.023154 0.677485
vt 0.028840 0.671813
vt 0.036962 0.674546
vt 0.048517 0.697712
vt 0.040697 0.697712
vt 0.037434 0.689505
vt 0.044911 0.685294
vt 0.051421 0.689649
vt 0.097834 0.685248
vt 0.093022 0.679407
vt 0.097517 0.671813
vt 0.105984 0.675544
vt 0.105984 0.682600
vt 0.043112 0.671813
vt 0.051610 0.674722
vt 0.051610 0.683037
vt 0.043188 0.684822
vt 0.037434 0.678339
vt 0.078789 0.682359
vt 0.070926 0.685438
vt 0.065656 0.678055
vt 0.070367 0.671813
vt 0.078789 0.673599
vt 0.077643 0.692056
vt 0.073107 0.699948
vt 0.065656 0.696905
vt 0.065656 0.689073
vt 0.072808 0.685910
vt 0.035140 0.688343
vt 0.035140 0.696175
vt 0.027123 0.699566
vt 0.023154 0.691326
vt 0.027692 0.685922
vt 0.105441 0.695476
vt 0.097994 0.699307
vt 0.093022 0.691876
vt 0.097865 0.685720
vt 0.105441 0.687656
vt 0.091655 0.688048
vt 0.091655 0.696617
vt 0.084297 0.699266
vt 0.079261 0.692332
vt 0.084297 0.685398
vt 0.056785 0.686294
vt 0.065184 0.688186
vt 0.065184 0.696755
vt 0.056785 0.698646
vt 0.051989 0.692470
vt 0.087678 0.684927
vt 0.079261 0.683056
vt 0.079261 0.673908
vt 0.087612 0.671813
vt 0.092550 0.677877
vt 0.199669 0.054391
vt 0.195959 0.048145
vt 0.201636 0.046043
vt 0.205042 0.050291
vt 0.207184 0.056515
vt 0.210285 0.050113
vt 0.212893 0.056013
vt 0.197637 0.060330
vt 0.207171 0.064602
vt 0.216314 0.050801
vt 0.218709 0.060795
vt 0.209504 0.044998
vt 0.215752 0.046351
vt 0.194911 0.040951
vt 0.188937 0.048606
vt 0.187900 0.038930
vt 0.204646 0.041848
vt 0.206835 0.036128
vt 0.212317 0.040257
vt 0.198643 0.036634
vt 0.195294 0.030312
vt 0.220177 0.044670
vt 0.217055 0.065898
vt 0.219588 0.078516
vt 0.199723 0.074739
vt 0.179069 0.043145
vt 0.174868 0.034700
vt 0.181365 0.027928
vt 0.188586 0.056258
vt 0.176650 0.052076
vt 0.177511 0.018360
vt 0.228010 0.066728
vt 0.235879 0.064502
vt 0.238462 0.079281
vt 0.166318 0.050714
vt 0.181090 0.069793
vt 0.163152 0.037132
vt 0.160886 0.019889
vt 0.238343 0.018866
vt 0.235753 0.033978
vt 0.229412 0.045235
vt 0.236335 0.043326
vt 0.237038 0.055385
vt 0.147089 0.036168
vt 0.250274 0.066283
vt 0.134026 0.024996
vt 0.146793 0.010744
vt 0.250547 0.032391
vt 0.249657 0.049028
vn 0.9559 0.0152 -0.2933
vn -0.6090 0.0076 -0.7932
vn -0.0089 -0.0037 -1.0000
vn 0.1338 0.8517 0.5067
vn -0.0189 -0.9995 -0.0253
vn 0.6938 -0.4560 0.5574
vn -0.3035 -0.4661 0.8310
vn -0.9093 -0.4159 0.0157
vn -0.2978 -0.4309 -0.8519
vn 0.7371 -0.4350 -0.5172
vn 0.2828 0.4438 0.8503
vn -0.7248 0.4681 0.5054
vn -0.7186 0.4587 -0.5226
vn 0.2577 0.4411 -0.8596
vn 0.8933 0.4495 -0.0078
vn -0.0134 0.9998 0.0175
vn -0.1743 -0.8491 0.4986
vn 0.4078 -0.8597 0.3077
vn 0.2641 -0.5488 0.7931
vn 0.8510 -0.5249 0.0159
vn 0.4181 -0.8560 -0.3040
vn -0.5137 -0.7957 0.3207
vn -0.6914 -0.5184 0.5032
vn -0.1792 -0.8377 -0.5160
vn -0.6877 -0.5201 -0.5065
vn 0.2713 -0.5378 -0.7982
vn 0.9856 -0.1659 0.0312
vn 0.5839 0.0065 0.8118
vn 0.2739 -0.1844 0.9439
vn -0.9483 -0.0154 0.3170
vn -0.6082 -0.0004 0.7938
vn -0.9544 -0.0156 -0.2981
vn 0.2960 -0.1878 -0.9365
vn 0.6764 0.5225 0.5191
vn -0.2688 0.4939 0.8269
vn -0.8543 0.5195 0.0182
vn -0.2786 0.5253 -0.8040
vn 0.6766 0.5256 -0.5157
vn -0.4345 0.8413 0.3214
vn 0.5116 0.7859 0.3473
vn -0.5039 0.8370 -0.2135
vn -0.1923 0.7924 -0.5788
vn -0.3168 0.2013 -0.9269
vn 0.5909 -0.0046 -0.8068
vn -0.8276 -0.1608 -0.5378
vn -0.5173 -0.7685 -0.3767
vn 0.2076 -0.7895 -0.5776
vn 0.4731 0.8013 -0.3662
vn 0.1548 0.8505 -0.5027
vn 0.7822 0.1973 -0.5909
vn 0.5272 0.8498 -0.0002
vn 0.7810 0.1996 0.5918
vn 0.9471 0.0054 0.3210
vn 0.6229 -0.7821 0.0165
vn -0.3026 0.1928 0.9334
vn -0.0063 -0.0168 0.9998
vn -0.1988 0.7680 0.6088
vn -0.8004 -0.1672 0.5757
vn -0.9773 0.2110 0.0166
vn -0.5347 -0.8450 -0.0113
vn 0.1510 -0.8058 0.5727
usemtl LOWPOLY-COLORS
s 1
f 9/1/1 44/2/1 15/3/1 34/4/1
f 42/5/2 40/6/2 51/7/2 41/8/2
f 45/9/3 41/8/3 13/10/3 12/11/3
f 55/12/4 21/13/4 20/14/4 56/15/4
f 22/16/5 1/17/5 30/18/5 27/19/5 26/20/5
f 33/21/6 3/22/6 2/23/6 24/24/6 25/25/6
f 36/26/7 4/27/7 5/28/7 23/29/7 35/30/7
f 28/31/8 37/32/8 38/33/8 43/34/8 29/35/8
f 41/36/9 45/37/9 6/38/9 31/39/9 42/40/9
f 44/41/10 9/42/10 7/43/10 32/44/10 8/45/10
f 46/46/11 55/47/11 56/48/11 48/49/11 10/50/11
f 47/51/12 59/52/12 50/53/12 49/54/12 39/55/12
f 60/56/13 52/57/13 51/58/13 40/59/13 11/60/13
f 54/61/14 53/62/14 12/63/14 13/64/14 14/65/14
f 34/66/15 15/67/15 16/68/15 57/69/15 17/70/15
f 19/71/16 20/72/16 21/73/16 58/74/16 18/75/16
f 23/76/17 5/77/17 1/78/17 22/79/17
f 2/80/18 22/79/18 26/81/18 24/82/18
f 35/83/19 23/76/19 2/80/19 3/84/19
f 7/85/20 9/1/20 25/86/20 24/82/20
f 26/81/21 27/87/21 32/88/21 7/85/21
f 1/78/22 5/77/22 28/89/22
f 5/77/23 4/90/23 37/91/23 28/89/23
f 30/92/24 31/93/24 6/94/24 27/87/24
f 29/95/25 43/96/25 42/5/25 31/93/25
f 6/94/26 45/9/26 8/97/26 32/88/26
f 25/86/27 9/1/27 34/4/27
f 3/84/28 33/98/28 46/99/28 10/100/28
f 10/100/29 35/83/29 3/84/29
f 39/101/30 49/102/30 38/103/30 37/91/30
f 4/90/31 36/104/31 47/105/31 39/101/31
f 43/96/32 38/103/32 11/106/32 40/6/32
f 8/97/33 45/9/33 12/11/33
f 17/107/34 57/108/34 55/109/34 46/99/34
f 59/110/35 47/105/35 48/111/35 56/15/35
f 49/102/36 50/112/36 60/113/36 11/106/36
f 51/7/37 52/114/37 14/115/37 13/10/37
f 53/116/38 54/117/38 16/118/38 15/3/38
f 20/14/39 19/119/39 50/112/39 59/110/39
f 57/108/40 21/120/40 55/109/40
f 19/119/41 18/121/41 52/122/41 60/113/41 50/112/41
f 18/123/42 14/115/42 52/114/42
f 41/8/43 51/7/43 13/10/43
f 44/2/44 8/97/44 12/11/44 53/116/44
f 42/5/45 43/96/45 40/6/45
f 30/92/46 29/95/46 31/93/46
f 27/87/47 6/94/47 32/88/47
f 58/124/48 16/118/48 54/117/48
f 18/123/49 58/124/49 54/117/49 14/115/49
f 44/2/50 53/116/50 15/3/50
f 16/118/51 58/124/51 21/120/51 57/108/51
f 33/98/52 17/107/52 46/99/52
f 33/98/53 25/86/53 34/4/53 17/107/53
f 26/81/54 7/85/54 24/82/54
f 48/111/55 47/105/55 36/104/55
f 10/100/56 48/111/56 36/104/56 35/83/56
f 20/14/57 59/110/57 56/15/57
f 37/91/58 4/90/58 39/101/58
f 38/103/59 49/102/59 11/106/59
f 30/92/60 1/78/60 28/89/60 29/95/60
f 2/80/61 23/76/61 22/79/61
