# Blender v2.83.2 OBJ File: ''
# www.blender.org
mtllib SoccerBall.mtl
o soccer-ball
v -0.037434 -0.121289 0.027400
v 0.053545 -0.092119 0.073192
v 0.065647 -0.038917 0.105345
v -0.077524 -0.041109 0.095782
v -0.057475 -0.089510 0.074144
v -0.001958 -0.088004 -0.095680
v 0.090146 -0.088044 -0.031828
v 0.066752 -0.041256 -0.103828
v 0.120637 -0.038467 -0.030291
v 0.040085 0.012669 0.122841
v -0.118814 0.041414 -0.031850
v 0.040299 0.012511 -0.122970
v -0.006489 0.041428 -0.122969
v 0.002446 0.088216 -0.095468
v 0.114979 0.041362 -0.044599
v 0.091584 0.088150 -0.027603
v 0.114979 0.041362 0.044396
v -0.014286 0.121387 -0.044498
v -0.046616 0.121387 0.000000
v -0.017363 0.120144 0.046962
v 0.038025 0.121387 0.027501
v 0.010744 -0.122740 0.041395
v -0.007058 -0.087135 0.096186
v 0.089265 -0.087307 0.036334
v 0.118182 -0.040519 0.036334
v 0.048810 -0.120274 0.000796
v 0.012194 -0.121519 -0.044781
v -0.095083 -0.084070 0.027400
v -0.095083 -0.084070 -0.027603
v -0.040265 -0.117940 -0.033781
v -0.055376 -0.084085 -0.082090
v 0.062292 -0.087281 -0.073574
v 0.103890 -0.012336 0.077144
v 0.128887 0.016789 0.002901
v 0.004431 -0.045453 0.121832
v -0.042356 -0.016536 0.121833
v -0.113573 -0.042818 0.045165
v -0.129063 -0.008767 0.002641
v -0.105909 0.016866 0.073160
v -0.105675 0.016840 -0.073597
v -0.042810 -0.011902 -0.122136
v -0.082778 -0.036861 -0.092777
v -0.114345 -0.045545 -0.041597
v 0.105393 -0.012156 -0.075156
v 0.005922 -0.042697 -0.122768
v 0.073938 0.040823 0.098745
v -0.071213 0.040677 0.100661
v -0.001464 0.040823 0.123245
v -0.117814 0.040677 0.036520
v -0.087635 0.090537 0.029459
v -0.070979 0.040651 -0.101098
v -0.057324 0.089377 -0.074025
v 0.074152 0.040665 -0.098874
v 0.050757 0.087453 -0.081877
v 0.050600 0.090530 0.078797
v 0.003339 0.084455 0.098746
v 0.095166 0.084231 0.027400
v 0.032917 0.122838 -0.027501
v -0.060699 0.084308 0.078016
v -0.092795 0.084282 -0.033955
vt 0.758358 0.375478
vt 0.775446 0.337554
vt 0.832197 0.375822
vt 0.826819 0.445805
vt 0.614118 0.155530
vt 0.561633 0.045705
vt 0.735389 0.063541
vt 0.697510 0.171504
vt 0.710534 0.235964
vt 0.787960 0.187859
vt 0.776203 0.251010
vt 0.155617 0.587785
vt 0.027345 0.488289
vt 0.134087 0.374746
vt 0.259273 0.498059
vt 0.563064 0.375172
vt 0.531375 0.321815
vt 0.579868 0.303860
vt 0.608965 0.340149
vt 0.627265 0.393318
vt 0.653750 0.338624
vt 0.676026 0.389026
vt 0.545705 0.425906
vt 0.627147 0.462396
vt 0.705250 0.344505
vt 0.725708 0.429878
vt 0.647079 0.294929
vt 0.700454 0.306488
vt 0.522420 0.260366
vt 0.471388 0.325750
vt 0.462530 0.243094
vt 0.605581 0.268027
vt 0.624278 0.219163
vt 0.671110 0.254437
vt 0.554305 0.223486
vt 0.525693 0.169483
vt 0.738254 0.292129
vt 0.711580 0.473467
vt 0.733221 0.581252
vt 0.563524 0.548987
vt 0.387094 0.279102
vt 0.351208 0.206968
vt 0.406710 0.149119
vt 0.468392 0.391118
vt 0.366429 0.355392
vt 0.373788 0.067380
vt 0.805160 0.480559
vt 0.872386 0.461541
vt 0.894451 0.587785
vt 0.278173 0.343765
vt 0.404364 0.506737
vt 0.251125 0.227738
vt 0.231774 0.080444
vt 0.893432 0.071710
vt 0.871304 0.200800
vt 0.817140 0.296961
vt 0.876280 0.280648
vt 0.882284 0.383659
vt 0.113918 0.219503
vt 0.995345 0.476757
vt 0.002323 0.124067
vt 0.111389 0.002323
vt 0.997677 0.187239
vt 0.990082 0.329359
vt 0.416110 0.662324
vt 0.380058 0.730345
vt 0.287120 0.715710
vt 0.287120 0.633313
vt 0.366957 0.592431
vt 0.138269 0.698503
vt 0.059656 0.726685
vt 0.002323 0.648270
vt 0.058308 0.592431
vt 0.138269 0.619336
vt 0.252020 0.847399
vt 0.175032 0.847399
vt 0.142915 0.766607
vt 0.216522 0.725149
vt 0.280608 0.768025
vt 0.737541 0.724693
vt 0.690173 0.667188
vt 0.734427 0.592431
vt 0.817778 0.629158
vt 0.817778 0.698623
vt 0.198811 0.592431
vt 0.282474 0.621063
vt 0.282474 0.702928
vt 0.199558 0.720502
vt 0.142915 0.656678
vt 0.550051 0.696255
vt 0.472643 0.726566
vt 0.420757 0.653880
vt 0.467135 0.592431
vt 0.550051 0.610004
vt 0.538765 0.791720
vt 0.494110 0.869415
vt 0.420757 0.839459
vt 0.420757 0.762353
vt 0.491164 0.731212
vt 0.120331 0.755159
vt 0.120331 0.832265
vt 0.041399 0.865657
vt 0.002323 0.784527
vt 0.046998 0.731331
vt 0.812438 0.825384
vt 0.739119 0.863107
vt 0.690173 0.789942
vt 0.737847 0.729339
vt 0.812438 0.748399
vt 0.676710 0.752254
vt 0.676710 0.836620
vt 0.604274 0.862698
vt 0.554697 0.794436
vt 0.604276 0.726174
vt 0.333424 0.734992
vt 0.416110 0.753614
vt 0.416110 0.837980
vt 0.333423 0.856599
vt 0.286203 0.795795
vt 0.637563 0.721528
vt 0.554697 0.703117
vt 0.554697 0.613049
vt 0.636910 0.592431
vt 0.685527 0.652123
vn 0.9559 0.0152 -0.2933
vn -0.6090 0.0076 -0.7932
vn -0.0089 -0.0037 -1.0000
vn 0.1338 0.8517 0.5067
vn -0.1743 -0.8491 0.4986
vn 0.4078 -0.8597 0.3077
vn 0.2641 -0.5488 0.7931
vn 0.8510 -0.5249 0.0159
vn 0.4181 -0.8560 -0.3040
vn -0.5137 -0.7957 0.3207
vn -0.6914 -0.5184 0.5032
vn -0.1792 -0.8377 -0.5160
vn -0.6877 -0.5201 -0.5065
vn 0.2713 -0.5378 -0.7982
vn 0.9856 -0.1659 0.0312
vn 0.5839 0.0065 0.8118
vn 0.2739 -0.1844 0.9439
vn -0.9483 -0.0154 0.3170
vn -0.6082 -0.0004 0.7938
vn -0.9544 -0.0156 -0.2981
vn 0.2960 -0.1878 -0.9365
vn 0.6764 0.5225 0.5191
vn -0.2688 0.4939 0.8269
vn -0.8543 0.5195 0.0182
vn -0.2786 0.5253 -0.8040
vn 0.6766 0.5256 -0.5157
vn -0.4345 0.8413 0.3214
vn 0.5116 0.7859 0.3473
vn -0.5039 0.8370 -0.2135
vn -0.1923 0.7924 -0.5788
vn -0.3168 0.2013 -0.9269
vn 0.5909 -0.0046 -0.8068
vn -0.8276 -0.1608 -0.5378
vn -0.5173 -0.7685 -0.3767
vn 0.2076 -0.7895 -0.5776
vn 0.4731 0.8013 -0.3662
vn 0.1548 0.8505 -0.5027
vn 0.7822 0.1973 -0.5909
vn 0.5272 0.8498 -0.0002
vn 0.7810 0.1996 0.5918
vn 0.9471 0.0054 0.3210
vn 0.6229 -0.7821 0.0165
vn -0.3026 0.1928 0.9334
vn -0.0063 -0.0168 0.9998
vn -0.1988 0.7680 0.6088
vn -0.8004 -0.1672 0.5757
vn -0.9773 0.2110 0.0166
vn -0.5347 -0.8450 -0.0113
vn 0.1510 -0.8058 0.5727
vn -0.0189 -0.9995 -0.0253
vn 0.6938 -0.4560 0.5574
vn -0.3035 -0.4661 0.8310
vn -0.9093 -0.4159 0.0157
vn -0.2978 -0.4309 -0.8519
vn 0.7371 -0.4350 -0.5172
vn 0.2828 0.4438 0.8503
vn -0.7248 0.4681 0.5054
vn -0.7186 0.4587 -0.5226
vn 0.2577 0.4411 -0.8596
vn 0.8933 0.4495 -0.0078
vn -0.0134 0.9998 0.0175
usemtl 58_WHITE
s 1
f 9/1/1 44/2/1 15/3/1 34/4/1
f 42/5/2 40/6/2 51/7/2 41/8/2
f 45/9/3 41/8/3 13/10/3 12/11/3
f 55/12/4 21/13/4 20/14/4 56/15/4
f 23/16/5 5/17/5 1/18/5 22/19/5
f 2/20/6 22/19/6 26/21/6 24/22/6
f 35/23/7 23/16/7 2/20/7 3/24/7
f 7/25/8 9/1/8 25/26/8 24/22/8
f 26/21/9 27/27/9 32/28/9 7/25/9
f 1/18/10 5/17/10 28/29/10
f 5/17/11 4/30/11 37/31/11 28/29/11
f 30/32/12 31/33/12 6/34/12 27/27/12
f 29/35/13 43/36/13 42/5/13 31/33/13
f 6/34/14 45/9/14 8/37/14 32/28/14
f 25/26/15 9/1/15 34/4/15
f 3/24/16 33/38/16 46/39/16 10/40/16
f 10/40/17 35/23/17 3/24/17
f 39/41/18 49/42/18 38/43/18 37/31/18
f 4/30/19 36/44/19 47/45/19 39/41/19
f 43/36/20 38/43/20 11/46/20 40/6/20
f 8/37/21 45/9/21 12/11/21
f 17/47/22 57/48/22 55/49/22 46/39/22
f 59/50/23 47/45/23 48/51/23 56/15/23
f 49/42/24 50/52/24 60/53/24 11/46/24
f 51/7/25 52/54/25 14/55/25 13/10/25
f 53/56/26 54/57/26 16/58/26 15/3/26
f 20/14/27 19/59/27 50/52/27 59/50/27
f 57/48/28 21/60/28 55/49/28
f 19/59/29 18/61/29 52/62/29 60/53/29 50/52/29
f 18/63/30 14/55/30 52/54/30
f 41/8/31 51/7/31 13/10/31
f 44/2/32 8/37/32 12/11/32 53/56/32
f 42/5/33 43/36/33 40/6/33
f 30/32/34 29/35/34 31/33/34
f 27/27/35 6/34/35 32/28/35
f 58/64/36 16/58/36 54/57/36
f 18/63/37 58/64/37 54/57/37 14/55/37
f 44/2/38 53/56/38 15/3/38
f 16/58/39 58/64/39 21/60/39 57/48/39
f 33/38/40 17/47/40 46/39/40
f 33/38/41 25/26/41 34/4/41 17/47/41
f 26/21/42 7/25/42 24/22/42
f 48/51/43 47/45/43 36/44/43
f 10/40/44 48/51/44 36/44/44 35/23/44
f 20/14/45 59/50/45 56/15/45
f 37/31/46 4/30/46 39/41/46
f 38/43/47 49/42/47 11/46/47
f 30/32/48 1/18/48 28/29/48 29/35/48
f 2/20/49 23/16/49 22/19/49
usemtl 17_GREY-DARKEST
f 22/65/50 1/66/50 30/67/50 27/68/50 26/69/50
f 33/70/51 3/71/51 2/72/51 24/73/51 25/74/51
f 36/75/52 4/76/52 5/77/52 23/78/52 35/79/52
f 28/80/53 37/81/53 38/82/53 43/83/53 29/84/53
f 41/85/54 45/86/54 6/87/54 31/88/54 42/89/54
f 44/90/55 9/91/55 7/92/55 32/93/55 8/94/55
f 46/95/56 55/96/56 56/97/56 48/98/56 10/99/56
f 47/100/57 59/101/57 50/102/57 49/103/57 39/104/57
f 60/105/58 52/106/58 51/107/58 40/108/58 11/109/58
f 54/110/59 53/111/59 12/112/59 13/113/59 14/114/59
f 34/115/60 15/116/60 16/117/60 57/118/60 17/119/60
f 19/120/61 20/121/61 21/122/61 58/123/61 18/124/61
