# Blender v2.83.2 OBJ File: 'ActorModel.blend'
# www.blender.org
mtllib ActorLowerRightArm.mtl
o ActorLowerRightArm_Cube.008
v 0.125000 -0.375000 0.000000
v 0.125000 -0.000000 0.000000
v 0.125000 -0.375000 0.250000
v 0.125000 -0.000000 0.250000
v -0.125000 -0.375000 -0.000000
v -0.125000 -0.000000 -0.000000
v -0.125000 -0.375000 0.250000
v -0.125000 -0.000000 0.250000
vt 0.812500 0.500000
vt 0.812500 0.593750
vt 0.750000 0.593750
vt 0.750000 0.500000
vt 0.687500 0.593750
vt 0.687500 0.500000
vt 0.625000 0.593750
vt 0.625000 0.500000
vt 0.875000 0.500000
vt 0.875000 0.593750
vt 0.812500 0.750000
vt 0.750000 0.750000
vt 0.750000 0.687500
vt 0.812500 0.687500
vn 1.0000 0.0000 0.0000
vn -0.0000 0.0000 1.0000
vn -1.0000 0.0000 -0.0000
vn 0.0000 0.0000 -1.0000
vn 0.0000 -1.0000 0.0000
usemtl Material
s off
f 1/1/1 2/2/1 4/3/1 3/4/1
f 3/4/2 4/3/2 8/5/2 7/6/2
f 7/6/3 8/5/3 6/7/3 5/8/3
f 5/9/4 6/10/4 2/2/4 1/1/4
f 3/11/5 7/12/5 5/13/5 1/14/5
