# Blender v2.83.2 OBJ File: 'ActorModel.blend'
# www.blender.org
mtllib ActorUpperLeftLeg.mtl
o ActorUpperLeftLeg_Cube.007
v 0.250000 -0.375000 -0.125000
v 0.250000 -0.000000 -0.125000
v 0.250000 -0.375000 0.125000
v 0.250000 -0.000000 0.125000
v 0.000000 -0.375000 -0.125000
v 0.000000 -0.000000 -0.125000
v -0.000000 -0.375000 0.125000
v -0.000000 -0.000000 0.125000
vt 0.437500 0.093750
vt 0.437500 0.187500
vt 0.375000 0.187500
vt 0.375000 0.093750
vt 0.312500 0.187500
vt 0.312500 0.093750
vt 0.250000 0.187500
vt 0.250000 0.093750
vt 0.500000 0.093750
vt 0.500000 0.187500
vt 0.375000 0.250000
vt 0.312500 0.250000
vn 1.0000 0.0000 0.0000
vn -0.0000 0.0000 1.0000
vn -1.0000 0.0000 -0.0000
vn 0.0000 0.0000 -1.0000
vn 0.0000 1.0000 0.0000
usemtl Material
s off
f 1/1/1 2/2/1 4/3/1 3/4/1
f 3/4/2 4/3/2 8/5/2 7/6/2
f 7/6/3 8/5/3 6/7/3 5/8/3
f 5/9/4 6/10/4 2/2/4 1/1/4
f 8/5/5 4/3/5 2/11/5 6/12/5
